<?xml version="1.0" standalone="no"?>
<!DOCTYPE svg PUBLIC "-//W3C//DTD SVG 20010904//EN"
 "http://www.w3.org/TR/2001/REC-SVG-20010904/DTD/svg10.dtd">
<svg version="1.0" xmlns="http://www.w3.org/2000/svg"
 width="180.000000pt" height="180.000000pt" viewBox="0 0 180.000000 180.000000"
 preserveAspectRatio="xMidYMid meet">

<g transform="translate(0.000000,180.000000) scale(0.100000,-0.100000)"
fill="#000000" stroke="none">
<path d="M447 1352 l-447 -447 450 -450 450 -451 190 191 190 190 0 258 0 257
262 0 263 0 -450 450 c-247 248 -452 450 -455 450 -3 0 -206 -201 -453 -448z
m848 -12 l390 -390 -195 0 -195 0 -185 185 c-141 141 -191 185 -210 185 -36 0
-420 -384 -420 -420 0 -19 46 -71 197 -222 121 -121 205 -198 217 -198 11 0
28 7 38 17 16 14 18 34 18 185 l0 168 140 0 140 0 0 -228 0 -227 -165 -165
-165 -165 -418 418 -417 417 415 415 c228 228 417 415 420 415 3 0 181 -175
395 -390z m-205 -255 l185 -185 -188 0 -187 0 0 -187 0 -188 -187 187 -188
188 185 185 c102 102 187 185 190 185 3 0 88 -83 190 -185z"/>
</g>
</svg>
