<?xml version="1.0"?>
<svg width="203" height="203" xmlns="http://www.w3.org/2000/svg" xmlns:svg="http://www.w3.org/2000/svg" enable-background="new 0 0 960 560" version="1.1" xml:space="preserve">
 <style type="text/css">.st0{fill:#222222;}
	.st1{fill:#FF4000;}</style>
 <g class="layer">
  <title>Layer 1</title>
  <g id="Layer_2">
   <g id="svg_1">
    <path class="st0" d="m201.69,184.51c0,9.35 -7.65,17 -17,17l-166,0c-9.35,0 -17,-7.65 -17,-17l0,-166c0,-9.35 7.65,-17 17,-17l166,0c9.35,0 17,7.65 17,17l0,166z" id="svg_2"/>
    <path class="st0" d="m201.69,184.51c0,9.35 -7.65,17 -17,17l-166,0c-9.35,0 -17,-7.65 -17,-17l0,-166c0,-9.35 7.65,-17 17,-17l166,0c9.35,0 17,7.65 17,17l0,166z" id="svg_3"/>
   </g>
  </g>
  <g id="Spine_Logo">
   <g id="i">
    <path class="st1" d="m62.41,30.16c0.48,14.6 10.59,22.71 30.75,25.86c17.08,2.68 32.49,1.32 37.52,-13.32c9.8,-28.54 -13.46,-21.44 -33.61,-24.61c-20.16,-3.17 -35.43,-11.39 -34.66,12.07z" id="svg_4"/>
    <path class="st1" d="m68.47,90.12c1.87,10.9 12.03,17.15 27.58,16.73c15.55,-0.43 27.15,-6.5 28.76,-18.26c2.98,-21.77 -14.17,-13.35 -29.72,-12.93c-15.56,0.43 -30.31,-6.93 -26.62,14.46z" id="svg_5"/>
    <path class="st1" d="m88.7,140.03c3.09,8.14 11.56,11.58 23.01,9.13c11.44,-2.44 19.35,-6.23 18.71,-15.51c-1.16,-17.17 -12.47,-11.77 -23.91,-9.32c-11.45,2.43 -23.84,-0.28 -17.81,15.7z" id="svg_6"/>
    <path class="st1" d="m98.52,178.07c0.9,6.87 6.84,10.92 16.14,10.85c9.32,-0.08 16.37,-3.75 17.57,-11.11c2.24,-13.63 -8.18,-8.56 -17.49,-8.48c-9.32,0.07 -17.99,-4.74 -16.22,8.74z" id="svg_7"/>
   </g>
  </g>
 </g>
</svg>